<svg width="33" height="33" viewBox="0 0 33 33" fill="none" xmlns="http://www.w3.org/2000/svg">
<path d="M9.96792 23.362C7.86303 23.362 5.84276 22.8905 3.96453 21.9602L0.731949 20.3597L2.33242 23.5923C5.05204 29.087 10.5461 32.4999 16.6701 32.4999C25.4882 32.4999 32.6625 25.3256 32.6625 16.5075C32.6625 10.3835 29.2496 4.88943 23.7549 2.16981L20.5217 0.569336L22.1222 3.80251C23.0519 5.68142 23.5235 7.70102 23.5235 9.8065C23.5234 17.2807 17.4426 23.362 9.96792 23.362Z" fill="#FF9822"/>
<path d="M4.24674 16.9993L9.5 13.2228L14.7533 17L12.7467 10.8886L18 7.11139H11.5059L9.49942 1L7.4929 7.11139H1L6.2526 10.8886L4.24674 16.9993Z" fill="#FF9822"/>
</svg>
